<svg width="58" height="58" viewBox="0 0 58 58" fill="none" xmlns="http://www.w3.org/2000/svg">
<path d="M26.0777 29.0008L37.7102 40.6333C37.9346 40.8501 38.1136 41.1094 38.2368 41.3961C38.36 41.6828 38.4248 41.9912 38.4275 42.3032C38.4302 42.6153 38.3708 42.9247 38.2526 43.2135C38.1344 43.5023 37.9599 43.7647 37.7393 43.9853C37.5187 44.206 37.2563 44.3805 36.9675 44.4986C36.6787 44.6168 36.3692 44.6763 36.0572 44.6736C35.7451 44.6708 35.4368 44.606 35.1501 44.4829C34.8634 44.3597 34.6041 44.1807 34.3873 43.9562L21.0933 30.6623C20.6528 30.2216 20.4053 29.624 20.4053 29.0008C20.4053 28.3777 20.6528 27.7801 21.0933 27.3394L34.3873 14.0454C34.8305 13.6173 35.4241 13.3805 36.0403 13.3858C36.6564 13.3912 37.2458 13.6383 37.6815 14.074C38.1173 14.5098 38.3644 15.0992 38.3698 15.7153C38.3751 16.3315 38.1382 16.9251 37.7102 17.3683L26.0777 29.0008Z" fill="white"/>
</svg>
