<svg width="57" height="58" viewBox="0 0 57 58" fill="none" xmlns="http://www.w3.org/2000/svg">
<path d="M31.4875 29.1678L19.855 17.5353C19.4269 17.0921 19.19 16.4985 19.1954 15.8823C19.2008 15.2662 19.4479 14.6767 19.8836 14.241C20.3193 13.8053 20.9087 13.5582 21.5249 13.5528C22.1411 13.5475 22.7347 13.7843 23.1779 14.2124L36.4718 27.5064C36.9124 27.947 37.1599 28.5447 37.1599 29.1678C37.1599 29.7909 36.9124 30.3886 36.4718 30.8293L23.1779 44.1232C22.7347 44.5513 22.1411 44.7881 21.5249 44.7828C20.9087 44.7774 20.3193 44.5303 19.8836 44.0946C19.4479 43.6589 19.2008 43.0695 19.1954 42.4533C19.19 41.8371 19.4269 41.2435 19.855 40.8003L31.4875 29.1678V29.1678Z" fill="white"/>
</svg>
