<svg width="21" height="21" viewBox="0 0 21 21" fill="none" xmlns="http://www.w3.org/2000/svg">
<path d="M16.4062 4.4375C16.4478 4.4375 16.4882 4.45403 16.5176 4.4834C16.5468 4.51267 16.5634 4.5524 16.5635 4.59375C16.5635 4.61454 16.5596 4.63546 16.5518 4.6543L16.5176 4.70508L11.0742 10.1465L10.7207 10.5L11.0742 10.8535L16.5176 16.2959C16.5321 16.3104 16.5439 16.3277 16.5518 16.3467C16.5595 16.3655 16.5634 16.3859 16.5635 16.4062C16.5635 16.4268 16.5596 16.4478 16.5518 16.4668C16.5439 16.4858 16.5321 16.503 16.5176 16.5176C16.503 16.5321 16.4858 16.5439 16.4668 16.5518C16.4478 16.5596 16.4268 16.5635 16.4062 16.5635C16.3859 16.5634 16.3655 16.5595 16.3467 16.5518L16.2959 16.5176L10.8535 11.0742L10.5 10.7207L10.1465 11.0742L4.70508 16.5176C4.67571 16.5469 4.63529 16.5635 4.59375 16.5635C4.5524 16.5634 4.51267 16.5468 4.4834 16.5176C4.45403 16.4882 4.4375 16.4478 4.4375 16.4062C4.43755 16.3856 4.44149 16.3654 4.44922 16.3467L4.4834 16.2959L10.2793 10.5L9.92578 10.1465L4.4834 4.70508C4.45403 4.67571 4.4375 4.63529 4.4375 4.59375C4.4376 4.55234 4.45411 4.51268 4.4834 4.4834C4.4981 4.46869 4.51533 4.45702 4.53418 4.44922L4.59375 4.4375C4.61457 4.4375 4.63544 4.44138 4.6543 4.44922L4.70508 4.4834L10.1465 9.92578L10.5 10.2793L16.2959 4.4834C16.3252 4.45411 16.3648 4.4376 16.4062 4.4375Z" fill="white" stroke="white"/>
</svg>
