<svg width="24" height="25" viewBox="0 0 24 25" fill="none" xmlns="http://www.w3.org/2000/svg">
<path d="M16.017 2.01172H7.947C6.37015 2.01357 4.85844 2.64086 3.74353 3.75595C2.62862 4.87105 2.00159 6.38287 2 7.95972L2 16.0297C2.00185 17.6066 2.62914 19.1183 3.74424 20.2332C4.85933 21.3481 6.37115 21.9751 7.948 21.9767H16.018C17.5948 21.9749 19.1066 21.3476 20.2215 20.2325C21.3364 19.1174 21.9634 17.6056 21.965 16.0287V7.95872C21.9631 6.38187 21.3359 4.87015 20.2208 3.75525C19.1057 2.64034 17.5938 2.01331 16.017 2.01172V2.01172ZM19.957 16.0287C19.957 16.5461 19.8551 17.0585 19.6571 17.5365C19.4591 18.0145 19.1689 18.4489 18.803 18.8147C18.4371 19.1806 18.0028 19.4708 17.5248 19.6688C17.0468 19.8668 16.5344 19.9687 16.017 19.9687H7.947C6.90222 19.9685 5.90032 19.5532 5.16165 18.8144C4.42297 18.0755 4.008 17.0735 4.008 16.0287V7.95872C4.00827 6.91394 4.42349 5.91204 5.16235 5.17336C5.90122 4.43469 6.90322 4.01972 7.948 4.01972H16.018C17.0628 4.01998 18.0647 4.43521 18.8034 5.17407C19.542 5.91294 19.957 6.91494 19.957 7.95972V16.0297V16.0287Z" fill="white"/>
<path d="M11.9823 6.83105C10.6137 6.83317 9.30184 7.37784 8.33421 8.34566C7.36658 9.31348 6.82216 10.6255 6.82031 11.9941C6.8219 13.363 7.36634 14.6754 8.33421 15.6434C9.30209 16.6115 10.6144 17.1562 11.9833 17.1581C13.3524 17.1565 14.665 16.6119 15.6331 15.6438C16.6012 14.6757 17.1457 13.3631 17.1473 11.9941C17.1452 10.6251 16.6003 9.31294 15.632 8.34525C14.6637 7.37756 13.3512 6.83338 11.9823 6.83206V6.83105ZM11.9823 15.1501C11.1456 15.1501 10.3431 14.8177 9.75139 14.226C9.15971 13.6343 8.82731 12.8318 8.82731 11.9951C8.82731 11.1583 9.15971 10.3558 9.75139 9.76413C10.3431 9.17246 11.1456 8.84005 11.9823 8.84005C12.8191 8.84005 13.6216 9.17246 14.2132 9.76413C14.8049 10.3558 15.1373 11.1583 15.1373 11.9951C15.1373 12.8318 14.8049 13.6343 14.2132 14.226C13.6216 14.8177 12.8191 15.1501 11.9823 15.1501Z" fill="white"/>
<path d="M17.1559 8.10681C17.8391 8.10681 18.3929 7.55299 18.3929 6.86981C18.3929 6.18664 17.8391 5.63281 17.1559 5.63281C16.4728 5.63281 15.9189 6.18664 15.9189 6.86981C15.9189 7.55299 16.4728 8.10681 17.1559 8.10681Z" fill="white"/>
</svg>
