<svg width="24" height="25" viewBox="0 0 24 25" fill="none" xmlns="http://www.w3.org/2000/svg">
<path d="M21.959 13.7311V21.1101H17.681V14.2251C17.681 12.4951 17.062 11.3151 15.514 11.3151C14.332 11.3151 13.628 12.1111 13.319 12.8801C13.206 13.1551 13.177 13.5381 13.177 13.9231V21.1101H8.897C8.897 21.1101 8.955 9.45009 8.897 8.24109H13.177V10.0651L13.149 10.1071H13.177V10.0651C13.745 9.19009 14.76 7.93909 17.033 7.93909C19.848 7.93909 21.959 9.77909 21.959 13.7311ZM4.421 2.03809C2.958 2.03809 2 2.99809 2 4.26109C2 5.49609 2.93 6.48509 4.365 6.48509H4.393C5.886 6.48509 6.813 5.49609 6.813 4.26109C6.787 2.99809 5.887 2.03809 4.422 2.03809H4.421ZM2.254 21.1101H6.532V8.24109H2.254V21.1101Z" fill="white"/>
</svg>
