<svg width="20" height="17" viewBox="0 0 20 17" fill="none" xmlns="http://www.w3.org/2000/svg">
<path d="M20 1.91839C19.2504 2.24577 18.4565 2.46043 17.644 2.55539C18.4968 2.05463 19.138 1.2605 19.448 0.321394C18.64 0.791723 17.7587 1.123 16.841 1.30139C16.4545 0.8966 15.9897 0.574782 15.4748 0.355573C14.9598 0.136364 14.4056 0.0243598 13.846 0.0263944C11.58 0.0263944 9.743 1.83639 9.743 4.06639C9.743 4.38239 9.779 4.69139 9.849 4.98639C8.22358 4.90909 6.63212 4.4938 5.17617 3.76703C3.72022 3.04026 2.43176 2.01797 1.393 0.765394C1.02883 1.3798 0.837415 2.08118 0.839 2.79539C0.839697 3.46336 1.00683 4.12062 1.32529 4.70779C1.64375 5.29495 2.1035 5.79351 2.663 6.15839C2.01248 6.13739 1.37602 5.96372 0.805 5.65139V5.70139C0.805 7.65939 2.22 9.29239 4.095 9.66439C3.74261 9.75789 3.37958 9.80529 3.015 9.80539C2.75 9.80539 2.493 9.78039 2.242 9.73039C2.51008 10.5383 3.02311 11.2427 3.70982 11.7457C4.39653 12.2488 5.22284 12.5255 6.074 12.5374C4.61407 13.6619 2.82182 14.2694 0.979 14.2644C0.647 14.2644 0.321 14.2444 0 14.2084C1.88125 15.3991 4.06259 16.0297 6.289 16.0264C13.836 16.0264 17.962 9.86939 17.962 4.53039L17.948 4.00739C18.7529 3.44106 19.4481 2.73324 20 1.91839Z" fill="white"/>
</svg>
