<svg width="24" height="25" viewBox="0 0 24 25" fill="none" xmlns="http://www.w3.org/2000/svg">
<path d="M17.812 5.02834H6.145C3.855 5.02834 2 6.86334 2 9.12734V14.8953C2 17.1593 3.856 18.9953 6.145 18.9953H17.812C20.102 18.9953 21.957 17.1593 21.957 14.8953V9.12734C21.957 6.86334 20.101 5.02734 17.812 5.02734V5.02834ZM15.009 12.2913L9.552 14.8663C9.51872 14.8824 9.48192 14.8897 9.44503 14.8877C9.40815 14.8857 9.37237 14.8744 9.34103 14.8548C9.3097 14.8352 9.28382 14.8081 9.2658 14.7758C9.24779 14.7436 9.23822 14.7073 9.238 14.6703V9.36134C9.23867 9.32422 9.24872 9.28786 9.26722 9.25567C9.28573 9.22347 9.31208 9.19649 9.34382 9.17722C9.37556 9.15796 9.41167 9.14704 9.44877 9.14549C9.48587 9.14393 9.52276 9.1518 9.556 9.16834L15.014 11.9033C15.0504 11.9215 15.0809 11.9495 15.102 11.9842C15.1232 12.0189 15.1341 12.0588 15.1336 12.0994C15.1331 12.14 15.1211 12.1797 15.0991 12.2138C15.077 12.2479 15.0458 12.2752 15.009 12.2923V12.2913Z" fill="white"/>
</svg>
